# xmcd
#
# Track frame offsets:
#	150
#	15926
#	33351
#	48163
#	66937
#	88552
#	105080
#	122281
#	136059
#	153560
#	168295
#	182823
#
# Disc length: 2705 seconds
#
# Revision: 1
# Processed by: cddbd v1.5.1PL0 Copyright (c) Steve Scherf et al.
# Submitted via: EasyCDDAExtractor 6.0.0.1
#
DISCID=820a8f0c
DTITLE=Craig Duncan - Country Mountain Tributes to JamesTaylor
DYEAR=1900
DGENRE=Country
TTITLE0=Fire and Rain
TTITLE1=Show the People You Love
TTITLE2=Sweet Baby James
TTITLE3=Carolina in My Mond
TTITLE4=Handy Man
TTITLE5=How Sweet It Is to Bel Loved By You
TTITLE6=Country Road
TTITLE7=Something in the Way She Moves
TTITLE8=Up On the Roof
TTITLE9=Your Smiling Face
TTITLE10=Don't Let Me Be Lonely Tonight
TTITLE11=You've Got A Friend
EXTD=
EXTT0=
EXTT1=
EXTT2=
EXTT3=
EXTT4=
EXTT5=
EXTT6=
EXTT7=
EXTT8=
EXTT9=
EXTT10=
EXTT11=
PLAYORDER=
